<?xml version="1.0" encoding="UTF-8"?><svg id="Calque_23" xmlns="http://www.w3.org/2000/svg" viewBox="0 0 48 48"><defs><style>.cls-1{fill:#00ed04;}.cls-2{fill:#e2be66;}.cls-3{fill:#419845;}.cls-4{fill:#753905;}.cls-5{fill:#3b2906;}</style></defs><path class="cls-4" d="M42.65,14.32L24.21,3.77,5.77,14.32l.06.03v21.09l18.39,10.55,18.44-10.57V14.32h0Z"/><path class="cls-3" d="M20.94,14.3c1.05.85,2.09,1.7,3.14,2.54,5.56,1.51,11.26.14,14.82-3.71,2.66-2.88,3.31-6.28,3.5-7.83-5.5-2.98-13.76-1.25-17.68,2.18-2.61,2.29-3.47,5.31-3.77,6.81Z"/><path class="cls-1" d="M24.4,15.08c-1.17.66-2.33,1.33-3.5,1.99-5.72.57-11.13-1.73-14.03-6.12-2.17-3.29-2.26-6.74-2.2-8.31,5.91-2.03,13.78,1.05,17.1,5.09,2.21,2.69,2.57,5.81,2.63,7.35Z"/><path class="cls-5" d="M31.95,15.41c-2.19-1.98-5.08-2.27-6.55-2.43-1.23-.13-1.53-.01-2.02-.04,0,0-.08,0-.2-.02,0,0-.23-.03-.45-.08-1.5-.35-3.59-2-3.59-2-.8-.63-1.88-1.49-2.84-2.05-2.58-1.49-5.61-1.58-5.76-1.1-.15.47,2.52,1.23,5.79,4.11,1.11.99,1.94,1.9,2.48,2.55-.55.41-1.81,1.46-2.47,3.32-.29.82-.99,2.8-.17,3.84,1.08,1.36,3.68-.43,9.1-.79,5.59-.36,8.25.24,9.04-.82.88-1.2-1.42-3.65-2.37-4.51Z"/><path class="cls-2" d="M32.21,21.38v15.32c0,1.16-.91,2.95-2.07,3l-8.61.02v-4.49s5.35,0,5.35,0c.1,0,.72-.61.72-.67v-13.16l4.6-.02Z"/><polygon class="cls-2" points="26.33 18.65 20.1 28.07 25.67 28.07 25.67 31.74 14.96 31.74 14.96 28.3 22.35 18.64 26.33 18.65"/></svg>