<?xml version="1.0" encoding="UTF-8"?><svg id="Calque_31" xmlns="http://www.w3.org/2000/svg" xmlns:xlink="http://www.w3.org/1999/xlink" viewBox="0 0 800 800"><defs><style>.cls-1{fill:#3b2008;}.cls-2{fill:#00ed04;}.cls-3{fill:#2c1806;}.cls-4{fill:none;stroke:#e2be66;stroke-miterlimit:10;}.cls-5{fill:#419845;}.cls-6{fill:url(#Dégradé_sans_nom_12);}.cls-7{fill:url(#Dégradé_sans_nom_52);}.cls-8{fill:#7d532a;}.cls-9{fill:#e2be66;}</style><linearGradient id="Dégradé_sans_nom_12" x1="383.78" y1="392.12" x2="383.78" y2="782.8" gradientUnits="userSpaceOnUse"><stop offset=".1" stop-color="#3b2008"/><stop offset=".12" stop-color="#492d0d"/><stop offset=".16" stop-color="#70521c"/><stop offset=".22" stop-color="#af8c35"/><stop offset=".26" stop-color="#d8b345"/><stop offset=".54" stop-color="#d7b346"/><stop offset=".64" stop-color="#d7b44d"/><stop offset=".71" stop-color="#d6b659"/><stop offset=".77" stop-color="#d5ba6a"/><stop offset=".79" stop-color="#d5bc74"/><stop offset=".8" stop-color="#ccb26d"/><stop offset=".83" stop-color="#b39a5c"/><stop offset=".86" stop-color="#8c7241"/><stop offset=".89" stop-color="#563b1b"/><stop offset=".91" stop-color="#3b2008"/></linearGradient><linearGradient id="Dégradé_sans_nom_52" x1="359.49" y1="520.1" x2="360.34" y2="401.84" gradientUnits="userSpaceOnUse"><stop offset=".61" stop-color="#d8b345"/><stop offset=".68" stop-color="#a48432"/><stop offset=".77" stop-color="#71561f"/><stop offset=".84" stop-color="#4b3411"/><stop offset=".9" stop-color="#341f09"/><stop offset=".94" stop-color="#2c1806"/></linearGradient></defs><polygon class="cls-4" points="185.85 389.02 185.85 636.34 400.04 760 614.23 636.34 614.23 389.02 400.04 265.36 185.85 389.02"/><polygon class="cls-8" points="400.04 266.15 185.85 389.02 400.04 513.98 614.23 389.02 400.04 266.15"/><path class="cls-1" d="M517.92,445.08c.03-31.44-33.94-54.02-44.23-61.48-25.64-18.61-51.97-22.77-64.87-23.93l-24.11.91c-9.42.72-26.99,3.34-45.6,14.39-18,10.69-27.74,23.79-33.75,32.05-9.05,12.45-11.18,20.24-11.89,23.25,0,0-2.16,10.11-.59,21.17,0,.04-107.03-62.4-107.03-62.4v247.32s214.19,123.66,214.19,123.66l214.19-123.66v-247.32s-96.31,56.06-96.31,56.06Z"/><g id="hexagone"><path id="J" class="cls-6" d="M463.42,394.88c-1.3,60.36,1.3,120.73,0,181.09-.09,2.41-.6,5.69-2.46,8.96-5.91,10.39-19.72,10.71-20.74,10.72,12.98,11.47,25.95,22.95,38.93,34.42,11.07-1.01,20.47-1.56,27.7,8.26,12.66,17.2.5,39.66-20.68,38.2-14-.97-22.38-13.18-21.14-26.73.26-2.82,3.03-5.44,1.1-7.76l-51.11-41.79-4.64-.27v154.03s-10.32,5.95-10.32,5.95l-16.96-9.7v-160.34s-78.91,36.84-78.91,36.84c7.34,20.81-10.36,41.86-32.13,34.44-19.22-6.55-22.16-33.3-5.84-45.13,9.43-6.84,15.87-3.95,26.5-4.03l90.39-46.93,41.75-.1c7.81-.01,6.12-.48,6.46-6.01v-164.13h32.12ZM289.09,628.29c-11.94-11.7-28.5,7.93-16.58,18.24,11.26,9.74,27.71-7.34,16.58-18.24ZM486.49,641.73c-14.89,2.16-11.13,26.16,4.94,22.51,12.88-2.93,9.9-24.66-4.94-22.51Z"/><path class="cls-9" d="M325.67,429.93c2.37,1.69,24.61-14.16,38.69-24.96,21.4-16.42,19.59-29,71.83-18.59,4.01.8-42.5-51.66-96.03-6.45-17.81,15.05-26.05,41.77-14.49,50.01Z"/><path class="cls-5" d="M411.42,253.45c2.27-64.53,37.08-125.8,93.57-157.19,37.08-20.6,81.5-26.57,123.49-25.58-1.84,107.38-88.35,197.92-197.04,197.33,23.28-59.81,65.81-112.47,119.1-148.03,6.83-4.56,14.92-9.61,23.06-13.06-71.61,22.5-128.39,81.15-162.19,146.53Z"/><path class="cls-2" d="M377.63,219.81c-23.9-40.83-63.28-86.05-101.87-113.42-21.24-15.07-36.17-27.84-61.67-33.67l34.98,27.93c47.84,34.49,83.45,81.64,110.32,133.04-82.51-1.06-167.11-53.66-188.42-136-5.04-19.48-5.24-37.77-6.58-57.69,59.95,1.23,127.24,14.87,168.99,61.15,29.27,32.45,43.07,75.21,44.25,118.66Z"/><polygon class="cls-7" points="419.79 390.52 340.35 513.54 405.93 513.54 405.93 547.43 300.16 547.43 300.16 516.19 382.24 390.52 419.79 390.52"/><path class="cls-3" d="M400.04,277.49c29.91-75.13,93.24-148.23,172.94-170.33-85.24,49.83-151.88,143.75-152.9,245.99-.3,19.78,15.78,24.54,34.38,32.63,14.22,6.19,21.16,7.2,34.96,15.6,3.16,1.92,22.16,18.43,19.03,22.11-1.94,2.28-2.77-2.25-3.31-2.53-25.53-12.36-85.96-13.28-105.1-28.57-24.64,22.44-40.32,33.73-69.38,38.72,11.65-27.02,34.75-26.66,46.91-53.45,9.08-20.01,4.24-58.83,2.52-75.6-19.13-102.6-78.37-152.78-173.81-234.31,90.73,17.59,184.99,151.52,193.77,209.75Z"/></g></svg>